PathFileType	4	(X/Y/Z)	C:\Users\WrightLab\Desktop\Jo\P4V123.trc
DataRate	CameraRate	NumFrames	NumMarkers	Units	OrigDataRate	OrigDataStartFrame	OrigNumFrames
100.00	100.00	       6	19	mm	100.00	316	       504
Frame#	Time	Headset_Front			Headset_Back			Headset_Left			Headset_Right			Left_Shoulder			Right_Shoulder			Sternum			C7			Left Elbow			Right Elbow			Left Wrist			Right Wrist			Left ASIS			Right ASIS			S2			Left Knee			Right Knee			Left Ankle			Right Ankle			
		X1	Y1	Z1	X2	Y2	Z2	X3	Y3	Z3	X4	Y4	Z4	X5	Y5	Z5	X6	Y6	Z6	X7	Y7	Z7	X8	Y8	Z8	X9	Y9	Z9	X10	Y10	Z10	X11	Y11	Z11	X12	Y12	Z12	X13	Y13	Z13	X14	Y14	Z14	X15	Y15	Z15	X16	Y16	Z16	X17	Y17	Z17	X18	Y18	Z18	X19	Y19	Z19	

316	3.150	-554.77728	1564.23828	-640.24054				-705.82703	1658.69189	-528.17609	-477.16483	1631.53284	-528.92828	-759.85132	1480.37439	-408.35913	-470.52634	1497.00232	-385.53210	-614.10535	1421.86035	-506.56210	-613.05890	1523.69348	-348.75574	-894.18262	1137.24341	-339.56378	-204.85234	1360.89124	-548.48840	-894.28424	830.53900	-412.20953	-214.54861	1388.61279	-851.03973	-740.27728	993.96405	-506.09766	-406.47128	973.10089	-477.44928	-616.81976	1010.94916	-312.55591	-748.11688	532.16364	-615.74353	-479.87277	505.25974	-337.41177	-717.12958	29.61427	-715.82544	-576.85168	81.00256	-66.01016	
317	3.160	-554.93701	1563.95947	-650.22021				-706.52380	1657.54944	-538.38947				-761.27856	1479.34912	-419.40692	-471.83499	1495.22864	-396.08731	-614.67670	1420.24524	-518.04968	-613.92303	1521.96643	-358.81839	-895.66272	1136.31006	-350.52054	-206.51036	1357.33398	-558.76666	-895.04950	829.33960	-423.72397	-215.67165	1383.37000	-861.09149	-740.10632	993.64923	-520.00769	-406.18860	972.33868	-487.82703	-618.44684	1010.29364	-323.94104	-746.27148	531.57581	-630.56348	-479.40115	504.79642	-346.78061	-713.89929	27.97706	-720.32843	-576.50189	84.65456	-68.98855	
318	3.170	-555.14508	1563.85657	-661.02448				-707.23956	1656.66016	-548.61670				-761.81421	1478.55164	-430.87161	-472.50793	1493.81653	-407.33737	-615.91718	1419.79846	-528.47540	-614.71851	1520.40417	-369.61798	-897.06006	1135.30530	-362.20374	-207.87508	1353.03235	-568.28632	-896.54382	828.66022	-434.02231	-216.63383	1377.34680	-871.36334	-739.98462	992.69080	-533.30847	-406.90945	971.40997	-498.71783	-620.52252	1010.29315	-334.44925	-744.25531	529.99036	-644.28687	-478.51086	504.10104	-356.14105	-711.80603	28.02350	-721.56836	-575.84772	88.44547	-70.21301	
319	3.180	-555.26617	1563.55396	-671.30164				-707.86609	1655.80298	-559.37506	-478.98575	1628.45837	-556.60040	-763.03595	1477.31848	-442.10675	-473.54886	1492.31311	-416.87329	-616.27338	1418.71558	-539.50256	-615.98535	1519.43115	-379.67587	-898.12665	1134.52637	-372.85126	-209.36305	1348.65137	-577.67084	-897.58966	827.73352	-445.46982	-216.37370	1370.73230	-880.43860	-739.76520	992.38544	-547.71790	-406.82474	970.30310	-510.14395	-621.33008	1007.77930	-350.14740	-742.50525	528.54523	-658.21875	-476.98993	503.69424	-365.73056	-711.15332	28.73507	-723.15521	-577.37549	91.83383	-73.88188	
320	3.190	-555.47137	1563.19006	-681.03766				-708.45264	1655.19080	-569.86542				-764.03339	1476.15918	-453.16290	-474.82184	1491.34351	-427.26077	-617.26221	1418.07239	-550.69287	-618.04364	1518.01892	-390.40671	-897.64856	1132.27856	-384.26425	-211.16223	1344.68884	-587.76349	-898.76782	826.72461	-456.56021	-216.40912	1364.19409	-890.14648	-739.30029	992.39020	-562.15387	-406.55228	969.94733	-521.44299				-740.93945	527.10114	-671.92169	-475.47992	503.10901	-376.35217	-711.48309	29.70688	-729.19196	-576.84143	96.04244	-77.36962	
321	3.200	-555.57477	1563.36353	-691.32007				-709.04163	1654.81934	-580.26025				-765.63538	1476.19348	-464.77194	-476.51590	1490.80334	-437.74048	-618.48291	1418.03308	-561.59717	-618.60864	1517.00732	-400.11661	-901.33807	1132.67358	-396.55829	-213.53232	1340.52979	-597.85596	-900.31824	826.46533	-469.28131	-216.93887	1357.20667	-900.28503	-738.66418	992.79156	-575.82361	-406.25238	969.66931	-533.70581	-624.73621	1005.83478	-375.49170	-739.53229	525.58276	-684.16656	-473.67334	503.41489	-388.70636	-711.46161	29.57458	-733.74695	-575.84644	102.16140	-79.81094	
